# xmcd
#
# Track frame offsets:
#	150
#	14925
#	36050
#	67695
#	90602
#	105347
#	120852
#	139995
#	155637
#	180947
#	199292
#	221295
#	235520
#	258870
#	275420
#	289412
#
# Disc length: 4102 seconds
#
# Revision: 3
# Processed by: cddbd v1.5.2PL0 Copyright (c) Steve Scherf et al.
# Submitted via: audiograbber 1.83.01
#
DISCID=d8100410
DTITLE=Various Artist - Blues Busters Volume 3 - Classic Bluesrock
DYEAR=1994
DGENRE=Blues
TTITLE0=Smokin' Joe Kubek - Mellow Down Easy
TTITLE1=Barrelhouse - Coming Home No More
TTITLE2=Joe "Guitar" Hughes - Big Boss Man 
TTITLE3=Ronnie Earl - Blue Guitar
TTITLE4=Monti Amundson - Lesson Or Two
TTITLE5=Little Jimmy King - Under Pressure
TTITLE6=The Paladins - One Love
TTITLE7=Kim Wilson - She Moves Me
TTITLE8=The Guy Forsyth Band - Taxi
TTITLE9=Michael Hill Blues Mob - Why We Play The Blues
TTITLE10=Duke Robillard - Judgement Day
TTITLE11=Al Copley and Fabulous Thunderbirds - Another Woman
TTITLE12=Rod Piazza and Mighty Flyers - California Fire Blues
TTITLE13=Magic Dick and Jay Geils - I Got To Find My Baby
TTITLE14=Tinsley Ellis - Bush Doctor
TTITLE15=Kim Snelten and Hipshake - Accused
EXTD=
EXTT0=
EXTT1=
EXTT2=
EXTT3=
EXTT4=
EXTT5=
EXTT6=
EXTT7=
EXTT8=
EXTT9=
EXTT10=
EXTT11=
EXTT12=
EXTT13=
EXTT14=
EXTT15=
PLAYORDER=
